# xmcd
#
# Track frame offsets:
#	150
#	12374
#	24492
#	38028
#	51620
#	65004
#	82128
#	95711
#	109523
#	126561
#	138024
#	149241
#
# Disc length: 2170 seconds
# Revision: 3
# Processed by: cddbd v1.5.2PL0 Copyright (c) Steve Scherf et al.
# Submitted via: dBpowerAMP V12.0
#
DISCID=b608780c
DTITLE=Blues - the perfect blues collection 25 original albums (Sony 88697847832)Percy Mayfield, Eric Gale, Seldon Powell, Joe James - CD16 Percy Mayfield 1970 Sings Percy Mayfield
DYEAR=2011
DGENRE=Blues
TTITLE0=Yes, You'll Play
TTITLE1=Live Today Like The Day Before
TTITLE2=The Highway's Like A Woman
TTITLE3=Painful Party
TTITLE4=You Wear Your Hair Too Long
TTITLE5=To Live The Past
TTITLE6=My Friend
TTITLE7=A Lying Woman (Not Trustworthy)
TTITLE8=To Claim It's Love
TTITLE9=My Error
TTITLE10=The Country
TTITLE11=This Time You Suffer Too
EXTD=
EXTT0=
EXTT1=
EXTT2=
EXTT3=
EXTT4=
EXTT5=
EXTT6=
EXTT7=
EXTT8=
EXTT9=
EXTT10=
EXTT11=
PLAYORDER=
